<mxfile host="app.diagrams.net" modified="2023-10-26T04:52:10.011Z" agent="Mozilla/5.0 (Windows NT 10.0; Win64; x64) AppleWebKit/537.36 (KHTML, like Gecko) Chrome/118.0.0.0 Safari/537.36" etag="IYcYmrAU3M7ZASy7nA4M" version="22.0.8" type="github" pages="2">
  <diagram name="Page-1" id="efa7a0a1-bf9b-a30e-e6df-94a7791c09e9">
    <mxGraphModel dx="1674" dy="788" grid="1" gridSize="10" guides="1" tooltips="1" connect="1" arrows="1" fold="1" page="1" pageScale="1" pageWidth="826" pageHeight="1169" background="none" math="0" shadow="0">
      <root>
        <mxCell id="0" />
        <mxCell id="1" parent="0" />
        <mxCell id="19" value="&lt;p style=&quot;margin: 0px; margin-top: 4px; text-align: center; text-decoration: underline;&quot;&gt;&lt;strong&gt;Role&lt;/strong&gt;&lt;/p&gt;&lt;hr /&gt;&lt;p style=&quot;margin: 0px; margin-left: 8px;&quot;&gt;IdCompany&lt;br /&gt;Name&lt;/p&gt;&lt;p style=&quot;margin: 0px; margin-left: 8px;&quot;&gt;Description&lt;/p&gt;&lt;p style=&quot;margin: 0px; margin-left: 8px;&quot;&gt;CreatedAt&lt;/p&gt;&lt;p style=&quot;margin: 0px; margin-left: 8px;&quot;&gt;UpdatedAt&lt;/p&gt;&lt;p style=&quot;margin: 0px; margin-left: 8px;&quot;&gt;Enabled&lt;/p&gt;" style="verticalAlign=top;align=left;overflow=fill;fontSize=12;fontFamily=Helvetica;html=1;strokeColor=#003366;shadow=1;fillColor=#D4E1F5;fontColor=#003366" parent="1" vertex="1">
          <mxGeometry x="310.0000000000001" y="91.64000000000044" width="160" height="120" as="geometry" />
        </mxCell>
        <mxCell id="20" value="&lt;p style=&quot;margin: 0px; margin-top: 4px; text-align: center; text-decoration: underline;&quot;&gt;&lt;strong&gt;Company&lt;/strong&gt;&lt;/p&gt;&lt;hr /&gt;&lt;p style=&quot;margin: 0px; margin-left: 8px;&quot;&gt;Name&lt;/p&gt;&lt;p style=&quot;margin: 0px; margin-left: 8px;&quot;&gt;Description&lt;/p&gt;&lt;p style=&quot;margin: 0px; margin-left: 8px;&quot;&gt;CreatedAt&lt;/p&gt;&lt;p style=&quot;margin: 0px; margin-left: 8px;&quot;&gt;UpdatedAt&lt;/p&gt;&lt;p style=&quot;margin: 0px; margin-left: 8px;&quot;&gt;Enabled&lt;/p&gt;" style="verticalAlign=top;align=left;overflow=fill;fontSize=12;fontFamily=Helvetica;html=1;strokeColor=#003366;shadow=1;fillColor=#D4E1F5;fontColor=#003366" parent="1" vertex="1">
          <mxGeometry x="310.00000000000006" y="302.4999999999998" width="160" height="125" as="geometry" />
        </mxCell>
        <mxCell id="21" value="&lt;p style=&quot;margin: 0px; margin-top: 4px; text-align: center; text-decoration: underline;&quot;&gt;&lt;strong&gt;Calendar&lt;/strong&gt;&lt;/p&gt;&lt;hr /&gt;&lt;p style=&quot;margin: 0px; margin-left: 8px;&quot;&gt;IdCalendar&lt;/p&gt;&lt;p style=&quot;margin: 0px; margin-left: 8px;&quot;&gt;IdCompany&lt;/p&gt;&lt;p style=&quot;margin: 0px; margin-left: 8px;&quot;&gt;Name&lt;/p&gt;&lt;p style=&quot;margin: 0px; margin-left: 8px;&quot;&gt;Description&lt;/p&gt;&lt;p style=&quot;margin: 0px; margin-left: 8px;&quot;&gt;ValidUntil&lt;/p&gt;&lt;p style=&quot;margin: 0px; margin-left: 8px;&quot;&gt;CreatedAt&lt;/p&gt;&lt;p style=&quot;margin: 0px; margin-left: 8px;&quot;&gt;UpdatedAt&lt;/p&gt;&lt;p style=&quot;margin: 0px; margin-left: 8px;&quot;&gt;Enabled&lt;/p&gt;" style="verticalAlign=top;align=left;overflow=fill;fontSize=12;fontFamily=Helvetica;html=1;strokeColor=#003366;shadow=1;fillColor=#D4E1F5;fontColor=#003366" parent="1" vertex="1">
          <mxGeometry x="40.00000000000002" y="284.99999999999983" width="160" height="160" as="geometry" />
        </mxCell>
        <mxCell id="22" value="&lt;p style=&quot;margin: 0px; margin-top: 4px; text-align: center; text-decoration: underline;&quot;&gt;&lt;strong&gt;User&lt;/strong&gt;&lt;/p&gt;&lt;hr /&gt;&lt;p style=&quot;margin: 0px; margin-left: 8px;&quot;&gt;IdUser&lt;/p&gt;&lt;p style=&quot;margin: 0px; margin-left: 8px;&quot;&gt;IdCompany&lt;/p&gt;&lt;p style=&quot;margin: 0px; margin-left: 8px;&quot;&gt;Name&lt;/p&gt;&lt;p style=&quot;margin: 0px; margin-left: 8px;&quot;&gt;LastName&lt;/p&gt;&lt;p style=&quot;margin: 0px; margin-left: 8px;&quot;&gt;Email&lt;/p&gt;&lt;p style=&quot;margin: 0px; margin-left: 8px;&quot;&gt;UserName&lt;/p&gt;&lt;p style=&quot;margin: 0px; margin-left: 8px;&quot;&gt;Password&lt;/p&gt;&lt;p style=&quot;margin: 0px; margin-left: 8px;&quot;&gt;CreatedAt&lt;/p&gt;&lt;p style=&quot;margin: 0px; margin-left: 8px;&quot;&gt;UpdatedAt&lt;/p&gt;&lt;p style=&quot;margin: 0px; margin-left: 8px;&quot;&gt;Enabled&lt;/p&gt;" style="verticalAlign=top;align=left;overflow=fill;fontSize=12;fontFamily=Helvetica;html=1;strokeColor=#003366;shadow=1;fillColor=#D4E1F5;fontColor=#003366" parent="1" vertex="1">
          <mxGeometry x="879.9999999999999" y="430" width="160.0000000000001" height="180" as="geometry" />
        </mxCell>
        <mxCell id="23" value="&lt;p style=&quot;margin: 0px; margin-top: 4px; text-align: center; text-decoration: underline;&quot;&gt;&lt;strong&gt;UserProjectRole&lt;/strong&gt;&lt;/p&gt;&lt;hr /&gt;&lt;p style=&quot;margin: 0px; margin-left: 8px;&quot;&gt;IdUserProjectRole&lt;/p&gt;&lt;p style=&quot;margin: 0px; margin-left: 8px;&quot;&gt;IdRole&lt;/p&gt;&lt;p style=&quot;margin: 0px; margin-left: 8px;&quot;&gt;IdProject&lt;/p&gt;&lt;p style=&quot;margin: 0px; margin-left: 8px;&quot;&gt;IdUser&lt;/p&gt;" style="verticalAlign=top;align=left;overflow=fill;fontSize=12;fontFamily=Helvetica;html=1;strokeColor=#003366;shadow=1;fillColor=#D4E1F5;fontColor=#003366" parent="1" vertex="1">
          <mxGeometry x="591.0800000000005" y="101.64000000000058" width="160" height="100" as="geometry" />
        </mxCell>
        <mxCell id="24" value="&lt;p style=&quot;margin: 0px; margin-top: 4px; text-align: center; text-decoration: underline;&quot;&gt;&lt;strong&gt;Client&lt;/strong&gt;&lt;/p&gt;&lt;hr /&gt;&lt;p style=&quot;margin: 0px; margin-left: 8px;&quot;&gt;IdClient&lt;/p&gt;&lt;p style=&quot;margin: 0px; margin-left: 8px;&quot;&gt;IdCompany&lt;/p&gt;&lt;p style=&quot;margin: 0px; margin-left: 8px;&quot;&gt;Name&lt;/p&gt;&lt;p style=&quot;margin: 0px; margin-left: 8px;&quot;&gt;Description&lt;/p&gt;&lt;p style=&quot;margin: 0px; margin-left: 8px;&quot;&gt;CreatedAt&lt;/p&gt;&lt;p style=&quot;margin: 0px; margin-left: 8px;&quot;&gt;UpdatedAt&lt;/p&gt;&lt;p style=&quot;margin: 0px; margin-left: 8px;&quot;&gt;Enabled&lt;/p&gt;" style="verticalAlign=top;align=left;overflow=fill;fontSize=12;fontFamily=Helvetica;html=1;strokeColor=#003366;shadow=1;fillColor=#D4E1F5;fontColor=#003366" parent="1" vertex="1">
          <mxGeometry x="310.0000000000002" y="556.9600000000006" width="160" height="150" as="geometry" />
        </mxCell>
        <mxCell id="25" value="&lt;p style=&quot;margin: 0px; margin-top: 4px; text-align: center; text-decoration: underline;&quot;&gt;&lt;strong&gt;Holiday&lt;/strong&gt;&lt;/p&gt;&lt;hr /&gt;&lt;p style=&quot;margin: 0px; margin-left: 8px;&quot;&gt;IdHoliday&lt;/p&gt;&lt;p style=&quot;margin: 0px; margin-left: 8px;&quot;&gt;IdCalendar&lt;/p&gt;&lt;p style=&quot;margin: 0px; margin-left: 8px;&quot;&gt;Name&lt;/p&gt;&lt;p style=&quot;margin: 0px; margin-left: 8px;&quot;&gt;Description&lt;/p&gt;&lt;p style=&quot;margin: 0px; margin-left: 8px;&quot;&gt;Date&lt;/p&gt;&lt;p style=&quot;margin: 0px; margin-left: 8px;&quot;&gt;CreatedAt&lt;/p&gt;&lt;p style=&quot;margin: 0px; margin-left: 8px;&quot;&gt;UpdatedAt&lt;/p&gt;&lt;p style=&quot;margin: 0px; margin-left: 8px;&quot;&gt;Enabled&lt;/p&gt;" style="verticalAlign=top;align=left;overflow=fill;fontSize=12;fontFamily=Helvetica;html=1;strokeColor=#003366;shadow=1;fillColor=#D4E1F5;fontColor=#003366" parent="1" vertex="1">
          <mxGeometry x="40.00000000000005" y="21.640000000000366" width="160" height="160" as="geometry" />
        </mxCell>
        <mxCell id="26" value="&lt;p style=&quot;margin: 0px; margin-top: 4px; text-align: center; text-decoration: underline;&quot;&gt;&lt;strong&gt;TimeSheet&lt;/strong&gt;&lt;/p&gt;&lt;hr /&gt;&lt;p style=&quot;margin: 0px; margin-left: 8px;&quot;&gt;IdTimeSheet&lt;/p&gt;&lt;p style=&quot;margin: 0px; margin-left: 8px;&quot;&gt;Name&lt;/p&gt;&lt;p style=&quot;margin: 0px; margin-left: 8px;&quot;&gt;Description&lt;/p&gt;&lt;p style=&quot;margin: 0px; margin-left: 8px;&quot;&gt;IdProject&lt;/p&gt;&lt;p style=&quot;margin: 0px; margin-left: 8px;&quot;&gt;CreatedAt&lt;/p&gt;&lt;p style=&quot;margin: 0px; margin-left: 8px;&quot;&gt;UpdatedAt&lt;/p&gt;&lt;p style=&quot;margin: 0px; margin-left: 8px;&quot;&gt;Enabled&lt;/p&gt;&lt;p style=&quot;margin: 0px; margin-left: 8px;&quot;&gt;IdUser&lt;/p&gt;" style="verticalAlign=top;align=left;overflow=fill;fontSize=12;fontFamily=Helvetica;html=1;strokeColor=#003366;shadow=1;fillColor=#D4E1F5;fontColor=#003366" parent="1" vertex="1">
          <mxGeometry x="1170" y="680" width="160" height="170" as="geometry" />
        </mxCell>
        <mxCell id="27" value="&lt;p style=&quot;margin: 0px; margin-top: 4px; text-align: center; text-decoration: underline;&quot;&gt;&lt;strong&gt;TimeSheetHour&lt;/strong&gt;&lt;/p&gt;&lt;hr /&gt;&lt;p style=&quot;margin: 0px; margin-left: 8px;&quot;&gt;IdTimeSheetHour&lt;br /&gt;IdTimeSheet&lt;/p&gt;&lt;p style=&quot;margin: 0px; margin-left: 8px;&quot;&gt;IdUser&lt;/p&gt;&lt;p style=&quot;margin: 0px; margin-left: 8px;&quot;&gt;IdTimeCategory&lt;/p&gt;&lt;p style=&quot;margin: 0px; margin-left: 8px;&quot;&gt;IdTask&lt;/p&gt;&lt;p style=&quot;margin: 0px; margin-left: 8px;&quot;&gt;Quantity&lt;/p&gt;&lt;p style=&quot;margin: 0px; margin-left: 8px;&quot;&gt;Description&lt;/p&gt;&lt;p style=&quot;margin: 0px; margin-left: 8px;&quot;&gt;IdProjectManager&lt;/p&gt;&lt;p style=&quot;margin: 0px; margin-left: 8px;&quot;&gt;CreatedAt&lt;/p&gt;&lt;p style=&quot;margin: 0px; margin-left: 8px;&quot;&gt;UpdatedAt&lt;/p&gt;&lt;p style=&quot;margin: 0px; margin-left: 8px;&quot;&gt;Enabled&lt;/p&gt;" style="verticalAlign=top;align=left;overflow=fill;fontSize=12;fontFamily=Helvetica;html=1;strokeColor=#003366;shadow=1;fillColor=#D4E1F5;fontColor=#003366" parent="1" vertex="1">
          <mxGeometry x="1170" y="419.99999999999994" width="160" height="200" as="geometry" />
        </mxCell>
        <mxCell id="28" value="&lt;p style=&quot;margin: 0px; margin-top: 4px; text-align: center; text-decoration: underline;&quot;&gt;&lt;strong&gt;Document&lt;/strong&gt;&lt;/p&gt;&lt;hr /&gt;&lt;p style=&quot;margin: 0px; margin-left: 8px;&quot;&gt;IdDocument&lt;/p&gt;&lt;p style=&quot;margin: 0px; margin-left: 8px;&quot;&gt;Name&lt;/p&gt;&lt;p style=&quot;margin: 0px; margin-left: 8px;&quot;&gt;Description&lt;/p&gt;&lt;p style=&quot;margin: 0px; margin-left: 8px;&quot;&gt;ValidFrom&lt;/p&gt;&lt;p style=&quot;margin: 0px; margin-left: 8px;&quot;&gt;ValidUntil&lt;/p&gt;&lt;p style=&quot;margin: 0px; margin-left: 8px;&quot;&gt;DocumentContents&lt;/p&gt;&lt;p style=&quot;margin: 0px; margin-left: 8px;&quot;&gt;CreatedAt&lt;/p&gt;&lt;p style=&quot;margin: 0px; margin-left: 8px;&quot;&gt;UpdateAt&lt;/p&gt;&lt;p style=&quot;margin: 0px; margin-left: 8px;&quot;&gt;Enabled&lt;/p&gt;" style="verticalAlign=top;align=left;overflow=fill;fontSize=12;fontFamily=Helvetica;html=1;strokeColor=#003366;shadow=1;fillColor=#D4E1F5;fontColor=#003366" parent="1" vertex="1">
          <mxGeometry x="129.9999999999999" y="881.1600000000003" width="160" height="180" as="geometry" />
        </mxCell>
        <mxCell id="29" value="&lt;p style=&quot;margin: 0px; margin-top: 4px; text-align: center; text-decoration: underline;&quot;&gt;&lt;strong&gt;Project&lt;/strong&gt;&lt;/p&gt;&lt;hr /&gt;&lt;p style=&quot;margin: 0px; margin-left: 8px;&quot;&gt;IdProject&lt;/p&gt;&lt;p style=&quot;margin: 0px; margin-left: 8px;&quot;&gt;IdClient&lt;/p&gt;&lt;p style=&quot;margin: 0px; margin-left: 8px;&quot;&gt;Name&lt;/p&gt;&lt;p style=&quot;margin: 0px; margin-left: 8px;&quot;&gt;Description&lt;/p&gt;&lt;p style=&quot;margin: 0px; margin-left: 8px;&quot;&gt;StartDate&lt;/p&gt;&lt;p style=&quot;margin: 0px; margin-left: 8px;&quot;&gt;EndDate&lt;/p&gt;&lt;p style=&quot;margin: 0px; margin-left: 8px;&quot;&gt;CreatedAt&lt;/p&gt;&lt;p style=&quot;margin: 0px; margin-left: 8px;&quot;&gt;UpdatedAt&lt;/p&gt;&lt;p style=&quot;margin: 0px; margin-left: 8px;&quot;&gt;Enabled&lt;br /&gt;IdProjectManager&lt;/p&gt;" style="verticalAlign=top;align=left;overflow=fill;fontSize=12;fontFamily=Helvetica;html=1;strokeColor=#003366;shadow=1;fillColor=#D4E1F5;fontColor=#003366" parent="1" vertex="1">
          <mxGeometry x="591.0800000000003" y="531.9600000000007" width="160" height="200" as="geometry" />
        </mxCell>
        <mxCell id="30" value="&lt;p style=&quot;margin: 0px; margin-top: 4px; text-align: center; text-decoration: underline;&quot;&gt;&lt;strong&gt;TimeCategory&lt;/strong&gt;&lt;/p&gt;&lt;hr /&gt;&lt;p style=&quot;margin: 0px; margin-left: 8px;&quot;&gt;IdTimeCategory&lt;/p&gt;&lt;p style=&quot;margin: 0px; margin-left: 8px;&quot;&gt;Name&lt;/p&gt;&lt;p style=&quot;margin: 0px; margin-left: 8px;&quot;&gt;Description&lt;/p&gt;&lt;p style=&quot;margin: 0px; margin-left: 8px;&quot;&gt;CreatedAt&lt;/p&gt;&lt;p style=&quot;margin: 0px; margin-left: 8px;&quot;&gt;UpdatedAt&lt;/p&gt;&lt;p style=&quot;margin: 0px; margin-left: 8px;&quot;&gt;Enabled&lt;/p&gt;" style="verticalAlign=top;align=left;overflow=fill;fontSize=12;fontFamily=Helvetica;html=1;strokeColor=#003366;shadow=1;fillColor=#D4E1F5;fontColor=#003366" parent="1" vertex="1">
          <mxGeometry x="1420.0000000000002" y="455.0000000000001" width="160" height="130" as="geometry" />
        </mxCell>
        <mxCell id="31" value="&lt;p style=&quot;margin: 0px; margin-top: 4px; text-align: center; text-decoration: underline;&quot;&gt;&lt;strong&gt;TimeSheetCostCenter&lt;/strong&gt;&lt;/p&gt;&lt;hr /&gt;&lt;p style=&quot;margin: 0px; margin-left: 8px;&quot;&gt;IdTimeSheetCostCenter&lt;/p&gt;&lt;p style=&quot;margin: 0px; margin-left: 8px;&quot;&gt;IdTimeSheet&lt;/p&gt;&lt;p style=&quot;margin: 0px; margin-left: 8px;&quot;&gt;IdCostCenter&lt;/p&gt;" style="verticalAlign=top;align=left;overflow=fill;fontSize=12;fontFamily=Helvetica;html=1;strokeColor=#003366;shadow=1;fillColor=#D4E1F5;fontColor=#003366" parent="1" vertex="1">
          <mxGeometry x="1170" y="912.4999999999997" width="160" height="95" as="geometry" />
        </mxCell>
        <mxCell id="32" value="&lt;p style=&quot;margin: 0px; margin-top: 4px; text-align: center; text-decoration: underline;&quot;&gt;&lt;strong&gt;CostCenter&lt;/strong&gt;&lt;/p&gt;&lt;hr /&gt;&lt;p style=&quot;margin: 0px; margin-left: 8px;&quot;&gt;IdCostCenter&lt;/p&gt;&lt;p style=&quot;margin: 0px; margin-left: 8px;&quot;&gt;Name&lt;/p&gt;&lt;p style=&quot;margin: 0px; margin-left: 8px;&quot;&gt;Description&lt;/p&gt;&lt;p style=&quot;margin: 0px; margin-left: 8px;&quot;&gt;CreatedAt&lt;/p&gt;&lt;p style=&quot;margin: 0px; margin-left: 8px;&quot;&gt;UpdatedAt&lt;/p&gt;&lt;p style=&quot;margin: 0px; margin-left: 8px;&quot;&gt;Enabled&lt;/p&gt;" style="verticalAlign=top;align=left;overflow=fill;fontSize=12;fontFamily=Helvetica;html=1;strokeColor=#003366;shadow=1;fillColor=#D4E1F5;fontColor=#003366" parent="1" vertex="1">
          <mxGeometry x="940.0000000000001" y="889.9999999999995" width="160" height="140" as="geometry" />
        </mxCell>
        <mxCell id="33" value="&lt;p style=&quot;margin: 0px; margin-top: 4px; text-align: center; text-decoration: underline;&quot;&gt;&lt;strong&gt;ProjectCostCenter&lt;/strong&gt;&lt;/p&gt;&lt;hr /&gt;&lt;p style=&quot;margin: 0px; margin-left: 8px;&quot;&gt;IdProjectCostCenter&lt;/p&gt;&lt;p style=&quot;margin: 0px; margin-left: 8px;&quot;&gt;IdProject&lt;/p&gt;&lt;p style=&quot;margin: 0px; margin-left: 8px;&quot;&gt;IdCostCenter&lt;/p&gt;" style="verticalAlign=top;align=left;overflow=fill;fontSize=12;fontFamily=Helvetica;html=1;strokeColor=#003366;shadow=1;fillColor=#D4E1F5;fontColor=#003366" parent="1" vertex="1">
          <mxGeometry x="630" y="914.9999999999995" width="160" height="90" as="geometry" />
        </mxCell>
        <mxCell id="34" value="&lt;p style=&quot;margin: 0px ; margin-top: 4px ; text-align: center ; text-decoration: underline&quot;&gt;&lt;strong&gt;ProjectDocument&lt;/strong&gt;&lt;/p&gt;&lt;hr&gt;&lt;p style=&quot;margin: 0px ; margin-left: 8px&quot;&gt;IdProjectDocument&lt;/p&gt;&lt;p style=&quot;margin: 0px ; margin-left: 8px&quot;&gt;IdProject&lt;/p&gt;&lt;p style=&quot;margin: 0px ; margin-left: 8px&quot;&gt;IdDocument&lt;/p&gt;" style="verticalAlign=top;align=left;overflow=fill;fontSize=12;fontFamily=Helvetica;html=1;strokeColor=#003366;shadow=1;fillColor=#D4E1F5;fontColor=#003366" parent="1" vertex="1">
          <mxGeometry x="440.00000000000006" y="926.1600000000003" width="160" height="90" as="geometry" />
        </mxCell>
        <mxCell id="35" value="&lt;p style=&quot;margin: 0px; margin-top: 4px; text-align: center; text-decoration: underline;&quot;&gt;&lt;strong&gt;Tasks&lt;/strong&gt;&lt;/p&gt;&lt;hr /&gt;&lt;p style=&quot;margin: 0px; margin-left: 8px;&quot;&gt;IdTask&lt;/p&gt;&lt;p style=&quot;margin: 0px; margin-left: 8px;&quot;&gt;Name&lt;/p&gt;&lt;p style=&quot;margin: 0px; margin-left: 8px;&quot;&gt;Description&lt;/p&gt;&lt;p style=&quot;margin: 0px; margin-left: 8px;&quot;&gt;Work&lt;/p&gt;&lt;p style=&quot;margin: 0px; margin-left: 8px;&quot;&gt;IdProject&lt;/p&gt;&lt;p style=&quot;margin: 0px; margin-left: 8px;&quot;&gt;StartDate&lt;/p&gt;&lt;p style=&quot;margin: 0px; margin-left: 8px;&quot;&gt;EndDate&lt;/p&gt;&lt;p style=&quot;margin: 0px; margin-left: 8px;&quot;&gt;CreatedAt&lt;/p&gt;&lt;p style=&quot;margin: 0px; margin-left: 8px;&quot;&gt;UpdatedAt&lt;/p&gt;&lt;p style=&quot;margin: 0px; margin-left: 8px;&quot;&gt;Enabled&lt;/p&gt;" style="verticalAlign=top;align=left;overflow=fill;fontSize=12;fontFamily=Helvetica;html=1;strokeColor=#003366;shadow=1;fillColor=#D4E1F5;fontColor=#003366" parent="1" vertex="1">
          <mxGeometry x="1170" y="140.00000000000009" width="160" height="190" as="geometry" />
        </mxCell>
        <mxCell id="36" value="" style="endArrow=open;endSize=12;startArrow=diamondThin;startSize=14;startFill=0;edgeStyle=orthogonalEdgeStyle;" parent="1" source="19" target="20" edge="1">
          <mxGeometry y="160" as="geometry">
            <mxPoint y="160" as="sourcePoint" />
            <mxPoint x="160" y="160" as="targetPoint" />
          </mxGeometry>
        </mxCell>
        <mxCell id="37" value="0..n" style="resizable=0;align=left;verticalAlign=top;labelBackgroundColor=#ffffff;fontSize=10;strokeColor=#003366;shadow=1;fillColor=#D4E1F5;fontColor=#003366" parent="36" connectable="0" vertex="1">
          <mxGeometry x="-1" relative="1" as="geometry">
            <mxPoint x="10" as="offset" />
          </mxGeometry>
        </mxCell>
        <mxCell id="38" value="1" style="resizable=0;align=right;verticalAlign=top;labelBackgroundColor=#ffffff;fontSize=10;strokeColor=#003366;shadow=1;fillColor=#D4E1F5;fontColor=#003366" parent="36" connectable="0" vertex="1">
          <mxGeometry x="1" relative="1" as="geometry">
            <mxPoint x="590" y="105" as="offset" />
          </mxGeometry>
        </mxCell>
        <mxCell id="45" value="" style="endArrow=open;endSize=12;startArrow=diamondThin;startSize=14;startFill=0;edgeStyle=orthogonalEdgeStyle;rounded=0" parent="1" source="23" target="22" edge="1">
          <mxGeometry x="519.3599999999999" y="180" as="geometry">
            <mxPoint x="519.3599999999999" y="180" as="sourcePoint" />
            <mxPoint x="679.3599999999999" y="180" as="targetPoint" />
            <Array as="points">
              <mxPoint x="930" y="152" />
            </Array>
          </mxGeometry>
        </mxCell>
        <mxCell id="46" value="0..n" style="resizable=0;align=left;verticalAlign=top;labelBackgroundColor=#ffffff;fontSize=10;strokeColor=#003366;shadow=1;fillColor=#D4E1F5;fontColor=#003366" parent="45" connectable="0" vertex="1">
          <mxGeometry x="-1" relative="1" as="geometry">
            <mxPoint x="8.919999999999618" as="offset" />
          </mxGeometry>
        </mxCell>
        <mxCell id="47" value="1" style="resizable=0;align=right;verticalAlign=top;labelBackgroundColor=#ffffff;fontSize=10;strokeColor=#003366;shadow=1;fillColor=#D4E1F5;fontColor=#003366" parent="45" connectable="0" vertex="1">
          <mxGeometry x="1" relative="1" as="geometry">
            <mxPoint x="-550" y="-159.99999999999997" as="offset" />
          </mxGeometry>
        </mxCell>
        <mxCell id="48" value="" style="endArrow=open;endSize=12;startArrow=diamondThin;startSize=14;startFill=0;edgeStyle=orthogonalEdgeStyle;exitX=1;exitY=0.25;rounded=0" parent="1" source="29" target="22" edge="1">
          <mxGeometry x="769.3599999999999" y="450" as="geometry">
            <mxPoint x="769.3599999999999" y="450" as="sourcePoint" />
            <mxPoint x="929.3599999999999" y="450" as="targetPoint" />
          </mxGeometry>
        </mxCell>
        <mxCell id="49" value="0..n" style="resizable=0;align=left;verticalAlign=top;labelBackgroundColor=#ffffff;fontSize=10;strokeColor=#003366;shadow=1;fillColor=#D4E1F5;fontColor=#003366" parent="48" connectable="0" vertex="1">
          <mxGeometry x="-1" relative="1" as="geometry">
            <mxPoint x="8.919999999999803" y="3.039999999999177" as="offset" />
          </mxGeometry>
        </mxCell>
        <mxCell id="50" value="1" style="resizable=0;align=right;verticalAlign=top;labelBackgroundColor=#ffffff;fontSize=10;strokeColor=#003366;shadow=1;fillColor=#D4E1F5;fontColor=#003366" parent="48" connectable="0" vertex="1">
          <mxGeometry x="1" relative="1" as="geometry">
            <mxPoint x="-10" as="offset" />
          </mxGeometry>
        </mxCell>
        <mxCell id="51" value="" style="endArrow=open;endSize=12;startArrow=diamondThin;startSize=14;startFill=0;edgeStyle=orthogonalEdgeStyle" parent="1" source="23" target="29" edge="1">
          <mxGeometry x="389.35999999999996" y="350" as="geometry">
            <mxPoint x="389.35999999999996" y="350" as="sourcePoint" />
            <mxPoint x="549.3599999999999" y="350" as="targetPoint" />
          </mxGeometry>
        </mxCell>
        <mxCell id="52" value="0..n" style="resizable=0;align=left;verticalAlign=top;labelBackgroundColor=#ffffff;fontSize=10;strokeColor=#003366;shadow=1;fillColor=#D4E1F5;fontColor=#003366" parent="51" connectable="0" vertex="1">
          <mxGeometry x="-1" relative="1" as="geometry">
            <mxPoint x="8.91999999999958" as="offset" />
          </mxGeometry>
        </mxCell>
        <mxCell id="53" value="1" style="resizable=0;align=right;verticalAlign=top;labelBackgroundColor=#ffffff;fontSize=10;strokeColor=#003366;shadow=1;fillColor=#D4E1F5;fontColor=#003366" parent="51" connectable="0" vertex="1">
          <mxGeometry x="1" relative="1" as="geometry">
            <mxPoint x="18.919999999999582" y="-21.960000000000644" as="offset" />
          </mxGeometry>
        </mxCell>
        <mxCell id="54" value="" style="endArrow=open;endSize=12;startArrow=diamondThin;startSize=14;startFill=0;edgeStyle=orthogonalEdgeStyle;exitX=0;exitY=0.25;rounded=0" parent="1" source="26" target="22" edge="1">
          <mxGeometry x="1209.36" y="170" as="geometry">
            <mxPoint x="1209.36" y="170" as="sourcePoint" />
            <mxPoint x="1369.36" y="170" as="targetPoint" />
          </mxGeometry>
        </mxCell>
        <mxCell id="55" value="0..n" style="resizable=0;align=left;verticalAlign=top;labelBackgroundColor=#ffffff;fontSize=10;strokeColor=#003366;shadow=1;fillColor=#D4E1F5;fontColor=#003366" parent="54" connectable="0" vertex="1">
          <mxGeometry x="-1" relative="1" as="geometry">
            <mxPoint x="-30" y="7.499999999999728" as="offset" />
          </mxGeometry>
        </mxCell>
        <mxCell id="56" value="1" style="resizable=0;align=right;verticalAlign=top;labelBackgroundColor=#ffffff;fontSize=10;strokeColor=#003366;shadow=1;fillColor=#D4E1F5;fontColor=#003366" parent="54" connectable="0" vertex="1">
          <mxGeometry x="1" relative="1" as="geometry">
            <mxPoint x="20" as="offset" />
          </mxGeometry>
        </mxCell>
        <mxCell id="57" value="" style="endArrow=open;endSize=12;startArrow=diamondThin;startSize=14;startFill=0;edgeStyle=orthogonalEdgeStyle" parent="1" source="27" target="26" edge="1">
          <mxGeometry x="1269.36" y="180" as="geometry">
            <mxPoint x="1269.36" y="180" as="sourcePoint" />
            <mxPoint x="1429.36" y="180" as="targetPoint" />
          </mxGeometry>
        </mxCell>
        <mxCell id="58" value="0..n" style="resizable=0;align=left;verticalAlign=top;labelBackgroundColor=#ffffff;fontSize=10;strokeColor=#003366;shadow=1;fillColor=#D4E1F5;fontColor=#003366" parent="57" connectable="0" vertex="1">
          <mxGeometry x="-1" relative="1" as="geometry">
            <mxPoint x="10" as="offset" />
          </mxGeometry>
        </mxCell>
        <mxCell id="59" value="1" style="resizable=0;align=right;verticalAlign=top;labelBackgroundColor=#ffffff;fontSize=10;strokeColor=#003366;shadow=1;fillColor=#D4E1F5;fontColor=#003366" parent="57" connectable="0" vertex="1">
          <mxGeometry x="1" relative="1" as="geometry">
            <mxPoint x="20" y="-20" as="offset" />
          </mxGeometry>
        </mxCell>
        <mxCell id="63" value="" style="endArrow=open;endSize=12;startArrow=diamondThin;startSize=14;startFill=0;edgeStyle=orthogonalEdgeStyle;entryX=0.75;entryY=1" parent="1" source="33" target="29" edge="1">
          <mxGeometry x="479.35999999999996" y="790" as="geometry">
            <mxPoint x="479.35999999999996" y="790" as="sourcePoint" />
            <mxPoint x="639.3599999999999" y="790" as="targetPoint" />
          </mxGeometry>
        </mxCell>
        <mxCell id="64" value="0..n" style="resizable=0;align=left;verticalAlign=top;labelBackgroundColor=#ffffff;fontSize=10;strokeColor=#003366;shadow=1;fillColor=#D4E1F5;fontColor=#003366" parent="63" connectable="0" vertex="1">
          <mxGeometry x="-1" relative="1" as="geometry">
            <mxPoint x="-30" y="-97.50000000000027" as="offset" />
          </mxGeometry>
        </mxCell>
        <mxCell id="65" value="1" style="resizable=0;align=right;verticalAlign=top;labelBackgroundColor=#ffffff;fontSize=10;strokeColor=#003366;shadow=1;fillColor=#D4E1F5;fontColor=#003366" parent="63" connectable="0" vertex="1">
          <mxGeometry x="1" relative="1" as="geometry">
            <mxPoint x="-11.080000000000421" as="offset" />
          </mxGeometry>
        </mxCell>
        <mxCell id="66" value="" style="endArrow=open;endSize=12;startArrow=diamondThin;startSize=14;startFill=0;edgeStyle=orthogonalEdgeStyle" parent="1" source="33" target="32" edge="1">
          <mxGeometry x="469.3599999999999" y="526.1600000000003" as="geometry">
            <mxPoint x="469.3599999999999" y="526.1600000000003" as="sourcePoint" />
            <mxPoint x="980" y="1061.1600000000005" as="targetPoint" />
          </mxGeometry>
        </mxCell>
        <mxCell id="67" value="0..n" style="resizable=0;align=left;verticalAlign=top;labelBackgroundColor=#ffffff;fontSize=10;strokeColor=#003366;shadow=1;fillColor=#D4E1F5;fontColor=#003366" parent="66" connectable="0" vertex="1">
          <mxGeometry x="-1" relative="1" as="geometry">
            <mxPoint x="10" as="offset" />
          </mxGeometry>
        </mxCell>
        <mxCell id="68" value="1" style="resizable=0;align=right;verticalAlign=top;labelBackgroundColor=#ffffff;fontSize=10;strokeColor=#003366;shadow=1;fillColor=#D4E1F5;fontColor=#003366" parent="66" connectable="0" vertex="1">
          <mxGeometry x="1" relative="1" as="geometry">
            <mxPoint x="-10" as="offset" />
          </mxGeometry>
        </mxCell>
        <mxCell id="72" value="" style="endArrow=open;endSize=12;startArrow=diamondThin;startSize=14;startFill=0;edgeStyle=orthogonalEdgeStyle;entryX=0.25;entryY=1;rounded=0" parent="1" source="34" target="29" edge="1">
          <mxGeometry x="419.35999999999996" y="820" as="geometry">
            <mxPoint x="419.35999999999996" y="820" as="sourcePoint" />
            <mxPoint x="579.3599999999999" y="820" as="targetPoint" />
          </mxGeometry>
        </mxCell>
        <mxCell id="73" value="0..n" style="resizable=0;align=left;verticalAlign=top;labelBackgroundColor=#ffffff;fontSize=10;strokeColor=#003366;shadow=1;fillColor=#D4E1F5;fontColor=#003366" parent="72" connectable="0" vertex="1">
          <mxGeometry x="-1" relative="1" as="geometry">
            <mxPoint x="10" y="-26.160000000000235" as="offset" />
          </mxGeometry>
        </mxCell>
        <mxCell id="74" value="1" style="resizable=0;align=right;verticalAlign=top;labelBackgroundColor=#ffffff;fontSize=10;strokeColor=#003366;shadow=1;fillColor=#D4E1F5;fontColor=#003366" parent="72" connectable="0" vertex="1">
          <mxGeometry x="1" relative="1" as="geometry">
            <mxPoint x="-11.080000000000421" as="offset" />
          </mxGeometry>
        </mxCell>
        <mxCell id="75" value="" style="endArrow=open;endSize=12;startArrow=diamondThin;startSize=14;startFill=0;edgeStyle=orthogonalEdgeStyle" parent="1" source="31" target="26" edge="1">
          <mxGeometry x="1079.36" y="560" as="geometry">
            <mxPoint x="1079.36" y="560" as="sourcePoint" />
            <mxPoint x="1239.36" y="560" as="targetPoint" />
          </mxGeometry>
        </mxCell>
        <mxCell id="76" value="0..n" style="resizable=0;align=left;verticalAlign=top;labelBackgroundColor=#ffffff;fontSize=10;strokeColor=#003366;shadow=1;fillColor=#D4E1F5;fontColor=#003366" parent="75" connectable="0" vertex="1">
          <mxGeometry x="-1" relative="1" as="geometry">
            <mxPoint x="10.00000000000009" y="-22.499999999999915" as="offset" />
          </mxGeometry>
        </mxCell>
        <mxCell id="77" value="1" style="resizable=0;align=right;verticalAlign=top;labelBackgroundColor=#ffffff;fontSize=10;strokeColor=#003366;shadow=1;fillColor=#D4E1F5;fontColor=#003366" parent="75" connectable="0" vertex="1">
          <mxGeometry x="1" relative="1" as="geometry">
            <mxPoint x="20" as="offset" />
          </mxGeometry>
        </mxCell>
        <mxCell id="78" value="" style="endArrow=open;endSize=12;startArrow=diamondThin;startSize=14;startFill=0;edgeStyle=orthogonalEdgeStyle" parent="1" source="27" target="30" edge="1">
          <mxGeometry x="1309.36" y="540" as="geometry">
            <mxPoint x="1309.36" y="540" as="sourcePoint" />
            <mxPoint x="1469.36" y="540" as="targetPoint" />
          </mxGeometry>
        </mxCell>
        <mxCell id="79" value="0..n" style="resizable=0;align=left;verticalAlign=top;labelBackgroundColor=#ffffff;fontSize=10;strokeColor=#003366;shadow=1;fillColor=#D4E1F5;fontColor=#003366" parent="78" connectable="0" vertex="1">
          <mxGeometry x="-1" relative="1" as="geometry">
            <mxPoint x="10" as="offset" />
          </mxGeometry>
        </mxCell>
        <mxCell id="80" value="1" style="resizable=0;align=right;verticalAlign=top;labelBackgroundColor=#ffffff;fontSize=10;strokeColor=#003366;shadow=1;fillColor=#D4E1F5;fontColor=#003366" parent="78" connectable="0" vertex="1">
          <mxGeometry x="1" relative="1" as="geometry">
            <mxPoint x="-10" as="offset" />
          </mxGeometry>
        </mxCell>
        <mxCell id="81" value="" style="endArrow=open;endSize=12;startArrow=diamondThin;startSize=14;startFill=0;edgeStyle=orthogonalEdgeStyle" parent="1" source="27" target="35" edge="1">
          <mxGeometry x="1119.36" y="540" as="geometry">
            <mxPoint x="1119.36" y="540" as="sourcePoint" />
            <mxPoint x="1279.36" y="540" as="targetPoint" />
          </mxGeometry>
        </mxCell>
        <mxCell id="82" value="0..n" style="resizable=0;align=left;verticalAlign=top;labelBackgroundColor=#ffffff;fontSize=10;strokeColor=#003366;shadow=1;fillColor=#D4E1F5;fontColor=#003366" parent="81" connectable="0" vertex="1">
          <mxGeometry x="-1" relative="1" as="geometry">
            <mxPoint x="10" y="-20" as="offset" />
          </mxGeometry>
        </mxCell>
        <mxCell id="83" value="1" style="resizable=0;align=right;verticalAlign=top;labelBackgroundColor=#ffffff;fontSize=10;strokeColor=#003366;shadow=1;fillColor=#D4E1F5;fontColor=#003366" parent="81" connectable="0" vertex="1">
          <mxGeometry x="1" relative="1" as="geometry">
            <mxPoint x="20" as="offset" />
          </mxGeometry>
        </mxCell>
        <mxCell id="84" value="" style="endArrow=open;endSize=12;startArrow=diamondThin;startSize=14;startFill=0;edgeStyle=orthogonalEdgeStyle" parent="1" source="27" target="22" edge="1">
          <mxGeometry x="1389.36" y="130" as="geometry">
            <mxPoint x="1389.36" y="130" as="sourcePoint" />
            <mxPoint x="1549.36" y="130" as="targetPoint" />
          </mxGeometry>
        </mxCell>
        <mxCell id="85" value="0..n" style="resizable=0;align=left;verticalAlign=top;labelBackgroundColor=#ffffff;fontSize=10;strokeColor=#003366;shadow=1;fillColor=#D4E1F5;fontColor=#003366" parent="84" connectable="0" vertex="1">
          <mxGeometry x="-1" relative="1" as="geometry">
            <mxPoint x="-30" as="offset" />
          </mxGeometry>
        </mxCell>
        <mxCell id="86" value="1" style="resizable=0;align=right;verticalAlign=top;labelBackgroundColor=#ffffff;fontSize=10;strokeColor=#003366;shadow=1;fillColor=#D4E1F5;fontColor=#003366" parent="84" connectable="0" vertex="1">
          <mxGeometry x="1" relative="1" as="geometry">
            <mxPoint x="20" y="2.7284841053187846e-13" as="offset" />
          </mxGeometry>
        </mxCell>
        <mxCell id="87" value="" style="endArrow=open;endSize=12;startArrow=diamondThin;startSize=14;startFill=0;edgeStyle=orthogonalEdgeStyle" parent="1" source="20" target="24" edge="1">
          <mxGeometry x="519.3599999999999" y="200" as="geometry">
            <mxPoint x="519.3599999999999" y="200" as="sourcePoint" />
            <mxPoint x="679.3599999999999" y="200" as="targetPoint" />
          </mxGeometry>
        </mxCell>
        <mxCell id="88" value="0..n" style="resizable=0;align=left;verticalAlign=top;labelBackgroundColor=#ffffff;fontSize=10;strokeColor=#003366;shadow=1;fillColor=#D4E1F5;fontColor=#003366" parent="87" connectable="0" vertex="1">
          <mxGeometry x="-1" relative="1" as="geometry">
            <mxPoint x="-40" as="offset" />
          </mxGeometry>
        </mxCell>
        <mxCell id="89" value="1" style="resizable=0;align=right;verticalAlign=top;labelBackgroundColor=#ffffff;fontSize=10;strokeColor=#003366;shadow=1;fillColor=#D4E1F5;fontColor=#003366" parent="87" connectable="0" vertex="1">
          <mxGeometry x="1" relative="1" as="geometry">
            <mxPoint x="19.99999999999981" y="-24.999999999999815" as="offset" />
          </mxGeometry>
        </mxCell>
        <mxCell id="90" value="" style="endArrow=open;endSize=12;startArrow=diamondThin;startSize=14;startFill=0;edgeStyle=orthogonalEdgeStyle" parent="1" source="25" target="21" edge="1">
          <mxGeometry x="620" y="340" as="geometry">
            <mxPoint x="620" y="340" as="sourcePoint" />
            <mxPoint x="780" y="340" as="targetPoint" />
          </mxGeometry>
        </mxCell>
        <mxCell id="91" value="0..n" style="resizable=0;align=left;verticalAlign=top;labelBackgroundColor=#ffffff;fontSize=10;strokeColor=#003366;shadow=1;fillColor=#D4E1F5;fontColor=#003366" parent="90" connectable="0" vertex="1">
          <mxGeometry x="-1" relative="1" as="geometry">
            <mxPoint x="10" as="offset" />
          </mxGeometry>
        </mxCell>
        <mxCell id="92" value="1" style="resizable=0;align=right;verticalAlign=top;labelBackgroundColor=#ffffff;fontSize=10;strokeColor=#003366;shadow=1;fillColor=#D4E1F5;fontColor=#003366" parent="90" connectable="0" vertex="1">
          <mxGeometry x="1" relative="1" as="geometry">
            <mxPoint x="20" y="-24.99999999999981" as="offset" />
          </mxGeometry>
        </mxCell>
        <mxCell id="99" value="" style="endArrow=open;endSize=12;startArrow=diamondThin;startSize=14;startFill=0;edgeStyle=orthogonalEdgeStyle" parent="1" source="29" target="24" edge="1">
          <mxGeometry x="369.35999999999996" y="360" as="geometry">
            <mxPoint x="369.35999999999996" y="360" as="sourcePoint" />
            <mxPoint x="529.3599999999999" y="360" as="targetPoint" />
            <Array as="points" />
          </mxGeometry>
        </mxCell>
        <mxCell id="100" value="0..n" style="resizable=0;align=left;verticalAlign=top;labelBackgroundColor=#ffffff;fontSize=10;strokeColor=#003366;shadow=1;fillColor=#D4E1F5;fontColor=#003366" parent="99" connectable="0" vertex="1">
          <mxGeometry x="-1" relative="1" as="geometry">
            <mxPoint x="-31.08000000000042" as="offset" />
          </mxGeometry>
        </mxCell>
        <mxCell id="101" value="1" style="resizable=0;align=right;verticalAlign=top;labelBackgroundColor=#ffffff;fontSize=10;strokeColor=#003366;shadow=1;fillColor=#D4E1F5;fontColor=#003366" parent="99" connectable="0" vertex="1">
          <mxGeometry x="1" relative="1" as="geometry">
            <mxPoint x="19.99999999999981" y="1.8947806286936006e-13" as="offset" />
          </mxGeometry>
        </mxCell>
        <mxCell id="102" value="Use" style="endArrow=open;endSize=12;dashed=1" parent="1" source="23" target="19" edge="1">
          <mxGeometry x="430" y="50" as="geometry">
            <mxPoint x="430" y="50" as="sourcePoint" />
            <mxPoint x="590" y="50" as="targetPoint" />
          </mxGeometry>
        </mxCell>
        <mxCell id="103" value="1" style="endArrow=open;endSize=12;startArrow=diamondThin;startSize=14;startFill=1;edgeStyle=orthogonalEdgeStyle;align=left;verticalAlign=bottom;" parent="1" source="21" target="20" edge="1">
          <mxGeometry x="-0.8181818181818175" y="4.999999999999702" relative="1" as="geometry">
            <mxPoint x="80" y="510" as="sourcePoint" />
            <mxPoint x="240" y="510" as="targetPoint" />
            <mxPoint as="offset" />
          </mxGeometry>
        </mxCell>
        <mxCell id="107" value="" style="endArrow=none;edgeStyle=orthogonalEdgeStyle;" parent="1" source="28" target="34" edge="1">
          <mxGeometry x="190" y="950" as="geometry">
            <mxPoint x="190" y="950" as="sourcePoint" />
            <mxPoint x="350" y="950" as="targetPoint" />
          </mxGeometry>
        </mxCell>
        <mxCell id="108" value="parent" style="resizable=0;align=left;verticalAlign=bottom;labelBackgroundColor=#ffffff;fontSize=10;strokeColor=#003366;shadow=1;fillColor=#D4E1F5;fontColor=#003366" parent="107" connectable="0" vertex="1">
          <mxGeometry x="-1" relative="1" as="geometry">
            <mxPoint x="10" y="-10" as="offset" />
          </mxGeometry>
        </mxCell>
        <mxCell id="109" value="child" style="resizable=0;align=right;verticalAlign=bottom;labelBackgroundColor=#ffffff;fontSize=10;strokeColor=#003366;shadow=1;fillColor=#D4E1F5;fontColor=#003366" parent="107" connectable="0" vertex="1">
          <mxGeometry x="1" relative="1" as="geometry">
            <mxPoint x="-10" y="23.83999999999977" as="offset" />
          </mxGeometry>
        </mxCell>
        <mxCell id="110" value="" style="endArrow=none;edgeStyle=orthogonalEdgeStyle;" parent="1" source="32" target="31" edge="1">
          <mxGeometry x="910" y="972.4999999999998" as="geometry">
            <mxPoint x="910" y="972.4999999999998" as="sourcePoint" />
            <mxPoint x="1070" y="972.4999999999998" as="targetPoint" />
          </mxGeometry>
        </mxCell>
        <mxCell id="111" value="parent" style="resizable=0;align=left;verticalAlign=bottom;labelBackgroundColor=#ffffff;fontSize=10;strokeColor=#003366;shadow=1;fillColor=#D4E1F5;fontColor=#003366" parent="110" connectable="0" vertex="1">
          <mxGeometry x="-1" relative="1" as="geometry">
            <mxPoint x="10" as="offset" />
          </mxGeometry>
        </mxCell>
        <mxCell id="112" value="child" style="resizable=0;align=right;verticalAlign=bottom;labelBackgroundColor=#ffffff;fontSize=10;strokeColor=#003366;shadow=1;fillColor=#D4E1F5;fontColor=#003366" parent="110" connectable="0" vertex="1">
          <mxGeometry x="1" relative="1" as="geometry">
            <mxPoint x="-10" y="25" as="offset" />
          </mxGeometry>
        </mxCell>
        <mxCell id="113" value="" style="endArrow=block;endFill=1;edgeStyle=orthogonalEdgeStyle;align=left;verticalAlign=top;entryX=1;entryY=0.75;exitX=0;exitY=0.75;rounded=0" parent="1" source="26" target="29" edge="1">
          <mxGeometry x="-1" relative="1" as="geometry">
            <mxPoint x="910" y="840" as="sourcePoint" />
            <mxPoint x="1070" y="840" as="targetPoint" />
            <Array as="points">
              <mxPoint x="910" y="808" />
              <mxPoint x="910" y="682" />
            </Array>
          </mxGeometry>
        </mxCell>
        <mxCell id="114" value="1" style="resizable=0;align=left;verticalAlign=bottom;labelBackgroundColor=#ffffff;fontSize=10" parent="113" connectable="0" vertex="1">
          <mxGeometry x="-1" relative="1" as="geometry">
            <mxPoint x="-19.99999999999982" y="2.499999999999909" as="offset" />
          </mxGeometry>
        </mxCell>
      </root>
    </mxGraphModel>
  </diagram>
  <diagram id="dMt5o5dB-Pkf_eddamoT" name="Sida-2">
    <mxGraphModel dx="3375" dy="1612" grid="0" gridSize="10" guides="1" tooltips="1" connect="1" arrows="1" fold="1" page="0" pageScale="1" pageWidth="827" pageHeight="1169" math="0" shadow="0">
      <root>
        <mxCell id="0" />
        <mxCell id="1" parent="0" />
        <mxCell id="p20JRIMTcSJzgrANrE7B-2" style="edgeStyle=none;curved=1;rounded=0;orthogonalLoop=1;jettySize=auto;html=1;fontSize=12;startSize=8;endSize=8;" edge="1" parent="1" source="p20JRIMTcSJzgrANrE7B-1">
          <mxGeometry relative="1" as="geometry">
            <mxPoint x="159" y="110" as="targetPoint" />
          </mxGeometry>
        </mxCell>
        <mxCell id="p20JRIMTcSJzgrANrE7B-1" value="" style="ellipse;whiteSpace=wrap;html=1;aspect=fixed;fontSize=16;" vertex="1" parent="1">
          <mxGeometry x="-385" y="28" width="234" height="234" as="geometry" />
        </mxCell>
        <mxCell id="p20JRIMTcSJzgrANrE7B-3" value="CPU&amp;amp;RAM Metrics UI&lt;br&gt;" style="text;html=1;strokeColor=none;fillColor=none;align=center;verticalAlign=middle;whiteSpace=wrap;rounded=0;fontSize=16;" vertex="1" parent="1">
          <mxGeometry x="-298" y="127" width="60" height="30" as="geometry" />
        </mxCell>
        <mxCell id="p20JRIMTcSJzgrANrE7B-4" value="HTMX OR SVELTE?&lt;br&gt;&lt;br&gt;" style="label;whiteSpace=wrap;html=1;image=img/clipart/Gear_128x128.png;fontSize=16;" vertex="1" parent="1">
          <mxGeometry x="97" y="45" width="140" height="60" as="geometry" />
        </mxCell>
        <mxCell id="p20JRIMTcSJzgrANrE7B-5" value="" style="html=1;whiteSpace=wrap;shape=isoCube2;backgroundOutline=1;isoAngle=15;fontSize=16;" vertex="1" parent="1">
          <mxGeometry x="885" y="245" width="90" height="100" as="geometry" />
        </mxCell>
        <mxCell id="p20JRIMTcSJzgrANrE7B-6" value="" style="endArrow=classic;html=1;rounded=0;fontSize=12;startSize=8;endSize=8;curved=1;exitX=0.99;exitY=0.167;exitDx=0;exitDy=0;exitPerimeter=0;" edge="1" parent="1" source="p20JRIMTcSJzgrANrE7B-21" target="p20JRIMTcSJzgrANrE7B-5">
          <mxGeometry relative="1" as="geometry">
            <mxPoint x="150" y="200" as="sourcePoint" />
            <mxPoint x="250" y="200" as="targetPoint" />
          </mxGeometry>
        </mxCell>
        <mxCell id="p20JRIMTcSJzgrANrE7B-7" value="Label" style="edgeLabel;resizable=0;html=1;align=center;verticalAlign=middle;fontSize=16;" connectable="0" vertex="1" parent="p20JRIMTcSJzgrANrE7B-6">
          <mxGeometry relative="1" as="geometry" />
        </mxCell>
        <mxCell id="p20JRIMTcSJzgrANrE7B-8" value="Sending logs, errors and historicdaa(snaps)&lt;br&gt;" style="edgeLabel;html=1;align=center;verticalAlign=middle;resizable=0;points=[];fontSize=16;" vertex="1" connectable="0" parent="p20JRIMTcSJzgrANrE7B-6">
          <mxGeometry x="-0.0086" y="-1" relative="1" as="geometry">
            <mxPoint x="-234" y="-97" as="offset" />
          </mxGeometry>
        </mxCell>
        <mxCell id="p20JRIMTcSJzgrANrE7B-31" value="Storre logs and errors" style="edgeLabel;html=1;align=center;verticalAlign=middle;resizable=0;points=[];fontSize=16;" vertex="1" connectable="0" parent="p20JRIMTcSJzgrANrE7B-6">
          <mxGeometry x="-0.0045" y="-1" relative="1" as="geometry">
            <mxPoint as="offset" />
          </mxGeometry>
        </mxCell>
        <mxCell id="p20JRIMTcSJzgrANrE7B-10" value="sending back error code, if malfunction accurs and snaps&lt;br&gt;" style="text;strokeColor=none;fillColor=none;html=1;fontSize=16;fontStyle=1;verticalAlign=middle;align=center;" vertex="1" parent="1">
          <mxGeometry x="289" y="412" width="100" height="40" as="geometry" />
        </mxCell>
        <mxCell id="p20JRIMTcSJzgrANrE7B-22" value="" style="edgeStyle=none;curved=1;rounded=0;orthogonalLoop=1;jettySize=auto;html=1;fontSize=12;startSize=8;endSize=8;" edge="1" parent="1" source="p20JRIMTcSJzgrANrE7B-18" target="p20JRIMTcSJzgrANrE7B-21">
          <mxGeometry relative="1" as="geometry" />
        </mxCell>
        <mxCell id="p20JRIMTcSJzgrANrE7B-18" value="module for hadeling user actions&lt;br&gt;" style="shape=display;whiteSpace=wrap;html=1;fontSize=16;size=0;" vertex="1" parent="1">
          <mxGeometry x="-320" y="349" width="134" height="103" as="geometry" />
        </mxCell>
        <mxCell id="p20JRIMTcSJzgrANrE7B-19" value="" style="endArrow=classic;startArrow=classic;html=1;rounded=0;fontSize=12;startSize=8;endSize=8;curved=1;" edge="1" parent="1" source="p20JRIMTcSJzgrANrE7B-18" target="p20JRIMTcSJzgrANrE7B-1">
          <mxGeometry width="50" height="50" relative="1" as="geometry">
            <mxPoint x="-282" y="338" as="sourcePoint" />
            <mxPoint x="-232" y="288" as="targetPoint" />
          </mxGeometry>
        </mxCell>
        <mxCell id="p20JRIMTcSJzgrANrE7B-21" value="functions that handle errors, logs and snaps&lt;br&gt;" style="shape=process;whiteSpace=wrap;html=1;backgroundOutline=1;fontSize=16;" vertex="1" parent="1">
          <mxGeometry x="228" y="289" width="193" height="126" as="geometry" />
        </mxCell>
        <mxCell id="p20JRIMTcSJzgrANrE7B-24" value="" style="rounded=0;whiteSpace=wrap;html=1;fontSize=16;" vertex="1" parent="1">
          <mxGeometry x="-95" y="161" width="120" height="89" as="geometry" />
        </mxCell>
        <mxCell id="p20JRIMTcSJzgrANrE7B-25" value="handle snaps if&lt;br&gt;&amp;nbsp;taken&lt;br&gt;" style="text;html=1;strokeColor=none;fillColor=none;align=center;verticalAlign=middle;whiteSpace=wrap;rounded=0;fontSize=16;" vertex="1" parent="1">
          <mxGeometry x="-81" y="200" width="60" height="30" as="geometry" />
        </mxCell>
        <mxCell id="p20JRIMTcSJzgrANrE7B-27" value="" style="shape=link;html=1;rounded=0;fontSize=12;startSize=8;endSize=8;curved=1;" edge="1" parent="1" source="p20JRIMTcSJzgrANrE7B-1" target="p20JRIMTcSJzgrANrE7B-25">
          <mxGeometry width="100" relative="1" as="geometry">
            <mxPoint x="-174" y="172" as="sourcePoint" />
            <mxPoint x="-74" y="172" as="targetPoint" />
            <Array as="points">
              <mxPoint x="-135" y="174" />
            </Array>
          </mxGeometry>
        </mxCell>
        <mxCell id="p20JRIMTcSJzgrANrE7B-30" value="" style="endArrow=classic;html=1;rounded=0;fontSize=12;startSize=8;endSize=8;curved=1;" edge="1" parent="1" source="p20JRIMTcSJzgrANrE7B-24" target="p20JRIMTcSJzgrANrE7B-21">
          <mxGeometry width="50" height="50" relative="1" as="geometry">
            <mxPoint x="175" y="225" as="sourcePoint" />
            <mxPoint x="225" y="175" as="targetPoint" />
          </mxGeometry>
        </mxCell>
        <mxCell id="p20JRIMTcSJzgrANrE7B-34" value="If user wants logs," style="whiteSpace=wrap;html=1;aspect=fixed;fontSize=16;" vertex="1" parent="1">
          <mxGeometry x="-630" y="402" width="117" height="117" as="geometry" />
        </mxCell>
        <mxCell id="p20JRIMTcSJzgrANrE7B-35" value="" style="endArrow=classic;startArrow=classic;html=1;rounded=0;fontSize=12;startSize=8;endSize=8;curved=1;" edge="1" parent="1" source="p20JRIMTcSJzgrANrE7B-34" target="p20JRIMTcSJzgrANrE7B-5">
          <mxGeometry width="50" height="50" relative="1" as="geometry">
            <mxPoint x="175" y="367" as="sourcePoint" />
            <mxPoint x="225" y="317" as="targetPoint" />
            <Array as="points">
              <mxPoint x="111" y="581" />
              <mxPoint x="313" y="524" />
              <mxPoint x="638" y="524" />
            </Array>
          </mxGeometry>
        </mxCell>
        <mxCell id="p20JRIMTcSJzgrANrE7B-36" value="" style="endArrow=classic;startArrow=classic;html=1;rounded=0;fontSize=12;startSize=8;endSize=8;curved=1;entryX=0.475;entryY=0.975;entryDx=0;entryDy=0;entryPerimeter=0;" edge="1" parent="1" source="p20JRIMTcSJzgrANrE7B-37" target="p20JRIMTcSJzgrANrE7B-18">
          <mxGeometry width="50" height="50" relative="1" as="geometry">
            <mxPoint x="-323" y="553" as="sourcePoint" />
            <mxPoint x="-273" y="503" as="targetPoint" />
          </mxGeometry>
        </mxCell>
        <mxCell id="p20JRIMTcSJzgrANrE7B-37" value="User action&lt;br&gt;" style="rounded=0;whiteSpace=wrap;html=1;fontSize=16;" vertex="1" parent="1">
          <mxGeometry x="-428" y="644" width="120" height="60" as="geometry" />
        </mxCell>
        <mxCell id="p20JRIMTcSJzgrANrE7B-38" value="" style="endArrow=classic;html=1;rounded=0;fontSize=12;startSize=8;endSize=8;curved=1;entryX=0.142;entryY=0.989;entryDx=0;entryDy=0;entryPerimeter=0;" edge="1" parent="1" source="p20JRIMTcSJzgrANrE7B-37" target="p20JRIMTcSJzgrANrE7B-24">
          <mxGeometry width="50" height="50" relative="1" as="geometry">
            <mxPoint x="175" y="382" as="sourcePoint" />
            <mxPoint x="225" y="332" as="targetPoint" />
          </mxGeometry>
        </mxCell>
        <mxCell id="p20JRIMTcSJzgrANrE7B-39" value="All CPU&amp;amp;RAM Metrics in never stored,only temporary stored in volatile memory" style="rounded=1;whiteSpace=wrap;html=1;fontSize=16;" vertex="1" parent="1">
          <mxGeometry x="-589" y="-140" width="204" height="183" as="geometry" />
        </mxCell>
        <mxCell id="p20JRIMTcSJzgrANrE7B-40" value="RAM&amp;lt;" style="text;strokeColor=none;fillColor=none;html=1;fontSize=16;fontStyle=1;verticalAlign=middle;align=center;" vertex="1" parent="1">
          <mxGeometry x="-589" y="-180" width="214" height="40" as="geometry" />
        </mxCell>
        <mxCell id="p20JRIMTcSJzgrANrE7B-41" value="" style="shape=curlyBracket;whiteSpace=wrap;html=1;rounded=1;flipH=1;labelPosition=right;verticalLabelPosition=middle;align=left;verticalAlign=middle;fontSize=16;size=0.5;" vertex="1" parent="1">
          <mxGeometry x="-364" y="-182" width="20" height="120" as="geometry" />
        </mxCell>
        <mxCell id="p20JRIMTcSJzgrANrE7B-42" value="" style="shape=curlyBracket;whiteSpace=wrap;html=1;rounded=1;labelPosition=left;verticalLabelPosition=middle;align=right;verticalAlign=middle;fontSize=16;" vertex="1" parent="1">
          <mxGeometry x="-632" y="-180" width="20" height="120" as="geometry" />
        </mxCell>
        <mxCell id="p20JRIMTcSJzgrANrE7B-43" value="" style="endArrow=classic;html=1;rounded=0;fontSize=12;startSize=8;endSize=8;curved=1;" edge="1" parent="1" target="p20JRIMTcSJzgrANrE7B-1">
          <mxGeometry width="50" height="50" relative="1" as="geometry">
            <mxPoint x="-396" y="8" as="sourcePoint" />
            <mxPoint x="-346" y="-42" as="targetPoint" />
          </mxGeometry>
        </mxCell>
        <mxCell id="p20JRIMTcSJzgrANrE7B-45" value="Function fetching RAM Utilization and CPU Usage" style="html=1;whiteSpace=wrap;container=1;recursiveResize=0;collapsible=0;fontSize=16;" vertex="1" parent="1">
          <mxGeometry x="-155" y="-183" width="361" height="150" as="geometry" />
        </mxCell>
        <mxCell id="p20JRIMTcSJzgrANrE7B-46" value="" style="triangle;html=1;whiteSpace=wrap;fontSize=16;" vertex="1" parent="p20JRIMTcSJzgrANrE7B-45">
          <mxGeometry x="20" y="20" width="20" height="30" as="geometry" />
        </mxCell>
        <mxCell id="p20JRIMTcSJzgrANrE7B-50" value="" style="endArrow=classic;startArrow=classic;html=1;rounded=0;fontSize=12;startSize=8;endSize=8;curved=1;" edge="1" parent="1" source="p20JRIMTcSJzgrANrE7B-1" target="p20JRIMTcSJzgrANrE7B-45">
          <mxGeometry width="50" height="50" relative="1" as="geometry">
            <mxPoint x="-205" y="63" as="sourcePoint" />
            <mxPoint x="-155" y="13" as="targetPoint" />
          </mxGeometry>
        </mxCell>
        <mxCell id="p20JRIMTcSJzgrANrE7B-51" value="Updating with the right metrics" style="text;html=1;strokeColor=none;fillColor=none;align=center;verticalAlign=middle;whiteSpace=wrap;rounded=0;fontSize=16;" vertex="1" parent="1">
          <mxGeometry x="-107" y="21" width="60" height="30" as="geometry" />
        </mxCell>
        <mxCell id="p20JRIMTcSJzgrANrE7B-53" value="" style="endArrow=classic;html=1;rounded=0;fontSize=12;startSize=8;endSize=8;curved=1;" edge="1" parent="1" target="p20JRIMTcSJzgrANrE7B-45">
          <mxGeometry width="50" height="50" relative="1" as="geometry">
            <mxPoint x="-23" y="177" as="sourcePoint" />
            <mxPoint x="27" y="127" as="targetPoint" />
          </mxGeometry>
        </mxCell>
        <mxCell id="p20JRIMTcSJzgrANrE7B-54" value="" style="endArrow=classic;html=1;rounded=0;fontSize=12;startSize=8;endSize=8;curved=1;" edge="1" parent="1" source="p20JRIMTcSJzgrANrE7B-45" target="p20JRIMTcSJzgrANrE7B-24">
          <mxGeometry width="50" height="50" relative="1" as="geometry">
            <mxPoint x="42" y="64" as="sourcePoint" />
            <mxPoint x="92" y="14" as="targetPoint" />
            <Array as="points">
              <mxPoint x="55" y="48" />
            </Array>
          </mxGeometry>
        </mxCell>
        <mxCell id="p20JRIMTcSJzgrANrE7B-55" value="" style="endArrow=classic;html=1;rounded=0;fontSize=12;startSize=8;endSize=8;curved=1;" edge="1" parent="1" source="p20JRIMTcSJzgrANrE7B-24">
          <mxGeometry width="50" height="50" relative="1" as="geometry">
            <mxPoint x="696" y="298" as="sourcePoint" />
            <mxPoint x="896" y="283" as="targetPoint" />
            <Array as="points">
              <mxPoint x="-8" y="155" />
            </Array>
          </mxGeometry>
        </mxCell>
        <mxCell id="p20JRIMTcSJzgrANrE7B-57" value="" style="endArrow=classic;html=1;rounded=0;fontSize=12;startSize=8;endSize=8;curved=1;" edge="1" parent="1" target="p20JRIMTcSJzgrANrE7B-34">
          <mxGeometry width="50" height="50" relative="1" as="geometry">
            <mxPoint x="-428" y="651" as="sourcePoint" />
            <mxPoint x="-378" y="601" as="targetPoint" />
          </mxGeometry>
        </mxCell>
        <mxCell id="p20JRIMTcSJzgrANrE7B-59" value="" style="endArrow=classic;startArrow=classic;html=1;rounded=0;fontSize=12;startSize=8;endSize=8;curved=1;exitX=0.13;exitY=0.008;exitDx=0;exitDy=0;exitPerimeter=0;" edge="1" parent="1" target="p20JRIMTcSJzgrANrE7B-45">
          <mxGeometry width="50" height="50" relative="1" as="geometry">
            <mxPoint x="398.70000000000016" y="303.50800000000004" as="sourcePoint" />
            <mxPoint x="213.99670076983364" y="-19.5" as="targetPoint" />
            <Array as="points">
              <mxPoint x="371" y="33" />
            </Array>
          </mxGeometry>
        </mxCell>
        <mxCell id="p20JRIMTcSJzgrANrE7B-62" value="sending snap moment&lt;br&gt;" style="edgeLabel;html=1;align=center;verticalAlign=middle;resizable=0;points=[];fontSize=16;" vertex="1" connectable="0" parent="p20JRIMTcSJzgrANrE7B-59">
          <mxGeometry x="-0.1979" y="20" relative="1" as="geometry">
            <mxPoint y="1" as="offset" />
          </mxGeometry>
        </mxCell>
        <mxCell id="p20JRIMTcSJzgrANrE7B-63" value="Geting snap moment back" style="edgeLabel;html=1;align=center;verticalAlign=middle;resizable=0;points=[];fontSize=16;" vertex="1" connectable="0" parent="p20JRIMTcSJzgrANrE7B-59">
          <mxGeometry x="0.4987" y="22" relative="1" as="geometry">
            <mxPoint as="offset" />
          </mxGeometry>
        </mxCell>
        <mxCell id="p20JRIMTcSJzgrANrE7B-60" value="" style="endArrow=classic;html=1;rounded=0;fontSize=12;startSize=8;endSize=8;curved=1;" edge="1" parent="1" source="p20JRIMTcSJzgrANrE7B-34" target="p20JRIMTcSJzgrANrE7B-21">
          <mxGeometry width="50" height="50" relative="1" as="geometry">
            <mxPoint x="29" y="414" as="sourcePoint" />
            <mxPoint x="79" y="364" as="targetPoint" />
            <Array as="points">
              <mxPoint x="-85" y="529" />
            </Array>
          </mxGeometry>
        </mxCell>
        <mxCell id="p20JRIMTcSJzgrANrE7B-61" value="request log" style="edgeLabel;html=1;align=center;verticalAlign=middle;resizable=0;points=[];fontSize=16;" vertex="1" connectable="0" parent="p20JRIMTcSJzgrANrE7B-60">
          <mxGeometry x="0.1822" y="45" relative="1" as="geometry">
            <mxPoint as="offset" />
          </mxGeometry>
        </mxCell>
        <mxCell id="p20JRIMTcSJzgrANrE7B-64" value="DB" style="text;html=1;strokeColor=none;fillColor=none;align=center;verticalAlign=middle;whiteSpace=wrap;rounded=0;fontSize=16;" vertex="1" parent="1">
          <mxGeometry x="900" y="250" width="60" height="30" as="geometry" />
        </mxCell>
      </root>
    </mxGraphModel>
  </diagram>
</mxfile>
